<?xml version="1.0" encoding="utf-8"?>
<!-- Generator: Adobe Illustrator 19.0.0, SVG Export Plug-In . SVG Version: 6.00 Build 0)  -->
<svg version="1.1" id="Layer_1" xmlns="http://www.w3.org/2000/svg" xmlns:xlink="http://www.w3.org/1999/xlink" x="0px" y="0px"
	 viewBox="2221.7 372 276 48.4" style="enable-background:new 2221.7 372 276 48.4;" xml:space="preserve">
<style type="text/css">
	.st0{fill:#0096D6;}
	.st1{fill:#FFFFFF;}
</style>
<g>
	<path class="st0" d="M2272.2,405.1c-0.1-0.2-0.2-0.3-0.3-0.5l-4.9-7.6c-0.3-0.4-0.6-1-0.6-1.4c0-0.8,1-1.9,1.5-2.6
		c1.3-1.9,2.8-3.8,4-5.7c1-1.7,1.6-3.9,1.6-5.8c0-2.9-1-5.3-2.9-7.3c-0.9-0.9-1.9-1.5-3-2c-3,4.3-6,8.6-9,12.9
		c-2.7,3.8-5.6,7.7-4.9,12.6c0.3,1.8,1.2,3.2,2.1,4.7l4,6.3h-13.3v-25.2h5.5l8-11.5h-38.3v11.5h12.4v36.9h27c1,0,2,0,3,0
		c2.8,0,4.8-0.3,6.8-2.3c1.9-2,2.9-4.4,2.9-7.3C2273.9,408.7,2273.2,406.7,2272.2,405.1z"/>
	<path class="st1" d="M2298.4,388.2v20.4h-5.6v-20.4h-7.2v-4.9h19.9v4.9H2298.4z"/>
	<path class="st1" d="M2323.3,405.8c-2.2,2.1-4.8,3.1-7.7,3.1s-5.4-0.9-7.3-2.7c-1.9-1.8-2.9-4.3-2.9-7.3c0-3.1,1-5.5,2.9-7.3
		c2-1.8,4.3-2.7,7-2.7s4.9,0.8,6.8,2.4s2.8,3.8,2.8,6.6v2.9h-14.2c0.2,1.1,0.7,1.9,1.7,2.6c0.9,0.7,2,1,3.2,1c1.9,0,3.5-0.6,4.7-1.9
		L2323.3,405.8z M2318.1,394.2c-0.7-0.6-1.7-0.9-2.7-0.9c-1.1,0-2.1,0.3-2.9,1c-0.9,0.7-1.4,1.5-1.6,2.6h8.5
		C2319.3,395.8,2318.9,394.9,2318.1,394.2z"/>
	<path class="st1" d="M2337.8,404.1c1.8,0,3.4-0.9,4.9-2.7l3.2,3.6c-2.5,2.6-5.2,3.9-8.1,3.9s-5.4-0.9-7.4-2.8c-2-1.8-3-4.2-3-7.2
		s1-5.4,3.1-7.3c2-1.9,4.4-2.8,7.2-2.8c1.4,0,2.8,0.3,4.2,0.9s2.7,1.4,3.8,2.6l-2.8,3.7c-0.6-0.7-1.4-1.3-2.3-1.7
		c-0.9-0.4-1.8-0.6-2.7-0.6c-1.4,0-2.6,0.5-3.7,1.4c-1,0.9-1.5,2.2-1.5,3.9c0,1.6,0.5,2.9,1.5,3.8
		C2335.2,403.6,2336.4,404.1,2337.8,404.1z"/>
	<path class="st1" d="M2354,398.1v10.5h-5.4v-26.8h5.4v9.5c1.6-1.7,3.5-2.5,5.5-2.5s3.8,0.7,5.1,2.2c1.4,1.4,2.1,3.4,2.1,5.8v11.8
		h-5.4V398c0-3-1.1-4.5-3.3-4.5c-1.1,0-2,0.4-2.8,1.2C2354.4,395.4,2354,396.6,2354,398.1z"/>
	<path class="st1" d="M2382.2,408.6h-11.1v-25.2h9.8c1.7,0,3.2,0.2,4.4,0.6s2.2,1,2.8,1.7c1.1,1.3,1.7,2.8,1.7,4.4
		c0,2-0.6,3.4-1.9,4.4c-0.4,0.3-0.7,0.5-0.9,0.6c-0.2,0.1-0.5,0.2-0.9,0.4c1.6,0.3,2.8,1,3.7,2.1c0.9,1.1,1.4,2.4,1.4,4
		c0,1.8-0.6,3.3-1.8,4.7C2388.1,407.8,2385.7,408.6,2382.2,408.6z M2376.8,393.6h2.7c1.6,0,2.7-0.2,3.5-0.5s1.1-1.1,1.1-2.2
		s-0.3-1.9-1-2.2c-0.7-0.4-1.9-0.5-3.5-0.5h-2.7L2376.8,393.6L2376.8,393.6z M2376.8,403.8h3.9c1.6,0,2.8-0.2,3.6-0.6
		s1.2-1.2,1.2-2.3c0-1.2-0.4-1.9-1.3-2.3s-2.2-0.6-4.1-0.6h-3.3L2376.8,403.8L2376.8,403.8z"/>
	<path class="st1" d="M2411.7,405.8c-2.2,2.1-4.8,3.1-7.7,3.1s-5.4-0.9-7.3-2.7c-1.9-1.8-2.9-4.3-2.9-7.3c0-3.1,1-5.5,2.9-7.3
		c2-1.8,4.3-2.7,7-2.7s4.9,0.8,6.8,2.4s2.8,3.8,2.8,6.6v2.9h-14.2c0.2,1.1,0.7,1.9,1.7,2.6c0.9,0.7,2,1,3.2,1c1.9,0,3.5-0.6,4.7-1.9
		L2411.7,405.8z M2406.5,394.2c-0.7-0.6-1.7-0.9-2.7-0.9c-1.1,0-2.1,0.3-2.9,1c-0.9,0.7-1.4,1.5-1.6,2.6h8.5
		C2407.7,395.8,2407.2,394.9,2406.5,394.2z"/>
	<path class="st1" d="M2433.3,408.6h-5.1v-2.3c-1.4,1.8-3.1,2.6-5.2,2.6c-2.1,0-3.8-0.6-5.2-1.8c-1.4-1.2-2.1-2.8-2.1-4.8
		s0.7-3.5,2.2-4.5c1.4-1,3.4-1.5,5.9-1.5h4v-0.1c0-2.1-1.1-3.1-3.3-3.1c-0.9,0-1.9,0.2-3,0.6c-1,0.4-1.9,0.8-2.7,1.4l-2.4-3.5
		c2.6-1.9,5.5-2.8,8.7-2.8c2.4,0,4.3,0.6,5.8,1.8c1.5,1.2,2.2,3,2.2,5.6v12.4H2433.3z M2427.8,401.2v-0.9h-3.4c-2.2,0-3.3,0.7-3.3,2
		c0,0.7,0.3,1.2,0.8,1.6s1.3,0.6,2.2,0.6c1,0,1.8-0.3,2.5-0.9C2427.5,403,2427.8,402.2,2427.8,401.2z"/>
	<path class="st1" d="M2446.6,404.1c1.8,0,3.4-0.9,4.9-2.7l3.2,3.6c-2.5,2.6-5.2,3.9-8.1,3.9c-2.9,0-5.4-0.9-7.4-2.8
		c-2-1.8-3-4.2-3-7.2s1-5.4,3.1-7.3c2-1.9,4.4-2.8,7.2-2.8c1.4,0,2.8,0.3,4.2,0.9c1.4,0.6,2.7,1.4,3.8,2.6l-2.8,3.7
		c-0.6-0.7-1.4-1.3-2.3-1.7c-0.9-0.4-1.8-0.6-2.7-0.6c-1.4,0-2.6,0.5-3.7,1.4c-1.1,0.9-1.5,2.2-1.5,3.9c0,1.6,0.5,2.9,1.5,3.8
		C2444,403.6,2445.2,404.1,2446.6,404.1z"/>
	<path class="st1" d="M2476.6,398.9c0,2.8-1,5.2-2.9,7.1c-2,1.9-4.4,2.9-7.4,2.9c-2.9,0-5.4-1-7.4-2.9s-2.9-4.3-2.9-7.1
		c0-2.8,1-5.2,2.9-7.1c2-1.9,4.4-2.9,7.4-2.9c2.9,0,5.4,1,7.4,2.9C2475.7,393.7,2476.6,396,2476.6,398.9z M2461.5,398.9
		c0,1.6,0.5,2.9,1.4,3.9c0.9,1,2.1,1.5,3.5,1.5c1.4,0,2.6-0.5,3.5-1.5c0.9-1,1.4-2.3,1.4-3.9s-0.5-2.9-1.4-3.9
		c-0.9-1-2.1-1.5-3.5-1.5c-1.4,0-2.6,0.5-3.5,1.5C2462,396,2461.5,397.3,2461.5,398.9z"/>
	<path class="st1" d="M2485,397.7v10.8h-5.4v-19.4h5.4v2.2c1.6-1.7,3.5-2.5,5.5-2.5s3.8,0.7,5.1,2.2c1.4,1.4,2.1,3.4,2.1,5.8v11.8
		h-5.4v-11c0-3-1.1-4.5-3.3-4.5c-1.1,0-2,0.4-2.8,1.2C2485.4,395.1,2485,396.2,2485,397.7z"/>
</g>
</svg>
